<svg id="visual" viewBox="0 0 900 600" width="900" height="600" xmlns="http://www.w3.org/2000/svg" xmlns:xlink="http://www.w3.org/1999/xlink" version="1.1"><rect width="900" height="600" fill="#000911"></rect><g><g transform="translate(758 539)"><path d="M65.9 -18.5C76.2 10.1 68.8 47.3 45.9 64.1C23 80.9 -15.3 77.4 -42.6 57.8C-69.9 38.2 -86.1 2.5 -77.1 -24.3C-68.2 -51.1 -34.1 -68.9 -3.1 -67.9C27.9 -66.9 55.7 -47 65.9 -18.5Z" fill="#ff4600"></path></g><g transform="translate(131 238)"><path d="M60.2 -22.1C67.6 3.2 56 32.1 34.3 48C12.6 64 -19.1 66.9 -38.3 52.9C-57.6 38.8 -64.4 7.8 -56 -19C-47.5 -45.7 -23.8 -68.3 1.3 -68.8C26.4 -69.2 52.8 -47.5 60.2 -22.1Z" fill="#ff4600"></path></g><g transform="translate(814 188)"><path d="M68.6 -21.2C77.7 5.6 66 40.2 43.6 55.4C21.2 70.7 -12 66.5 -34.9 49.5C-57.8 32.6 -70.3 2.8 -62.7 -21.9C-55.2 -46.7 -27.6 -66.4 1.1 -66.8C29.8 -67.1 59.5 -48.1 68.6 -21.2Z" fill="#ff4600"></path></g><g transform="translate(380 294)"><path d="M68 -22.8C75.5 0.9 60.1 31.2 35.9 48.6C11.7 66 -21.4 70.5 -43.7 55.4C-65.9 40.3 -77.4 5.7 -68.3 -20.2C-59.3 -46 -29.6 -63.2 0.3 -63.3C30.3 -63.4 60.6 -46.5 68 -22.8Z" fill="#ff4600"></path></g></g></svg>