<svg id="visual" viewBox="0 0 900 600" width="900" height="600" xmlns="http://www.w3.org/2000/svg" xmlns:xlink="http://www.w3.org/1999/xlink" version="1.1"><rect width="900" height="600" fill="#000911"></rect><g><g transform="translate(295 124)"><path d="M70.7 -24.7C79.7 4.7 66.8 39.4 42.7 56.3C18.7 73.1 -16.5 72.1 -39.5 55.2C-62.5 38.3 -73.3 5.5 -64.7 -23.3C-56.1 -52.2 -28 -77 1.4 -77.4C30.9 -77.9 61.7 -54 70.7 -24.7Z" fill="#ff4600"></path></g><g transform="translate(589 573)"><path d="M55.7 -20.3C63.7 6.5 55.9 36.3 35 52.5C14.1 68.7 -19.8 71.3 -41.7 55.8C-63.5 40.3 -73.3 6.7 -64.3 -21.5C-55.4 -49.6 -27.7 -72.2 -1.9 -71.6C23.9 -70.9 47.7 -47.1 55.7 -20.3Z" fill="#ff4600"></path></g><g transform="translate(215 420)"><path d="M47.2 -14.9C53.4 3.8 45.4 27.7 29.1 39.3C12.8 51 -11.7 50.4 -27.6 38.7C-43.4 27 -50.6 4.1 -44.6 -14.3C-38.5 -32.8 -19.3 -46.9 0.6 -47.1C20.5 -47.3 41 -33.6 47.2 -14.9Z" fill="#ff4600"></path></g><g transform="translate(873 354)"><path d="M51.7 -15.7C58.5 4.1 49.6 30.1 31.6 43.1C13.6 56.1 -13.6 56.1 -32.5 42.8C-51.3 29.6 -61.9 3 -55.1 -16.8C-48.3 -36.6 -24.1 -49.7 -0.9 -49.4C22.4 -49.2 44.9 -35.5 51.7 -15.7Z" fill="#ff4600"></path></g></g></svg>