<svg id="visual" viewBox="0 0 900 600" width="900" height="600" xmlns="http://www.w3.org/2000/svg" xmlns:xlink="http://www.w3.org/1999/xlink" version="1.1"><rect width="900" height="600" fill="#000911"></rect><g><g transform="translate(265 109)"><path d="M84.7 -28C94.4 2.2 76.2 41 47.3 61.1C18.4 81.1 -21.1 82.3 -48.3 63.4C-75.4 44.4 -90.1 5.1 -80 -25.7C-69.9 -56.6 -35 -79.1 1.3 -79.5C37.5 -80 75 -58.3 84.7 -28Z" fill="#ff4600"></path></g><g transform="translate(195 420)"><path d="M57.6 -21.7C65.1 4.3 55 33.1 33.7 49.3C12.3 65.5 -20.3 69.2 -41.1 54.6C-61.9 40 -70.8 7 -62 -20.9C-53.1 -48.7 -26.6 -71.6 -0.8 -71.4C25.1 -71.1 50.1 -47.8 57.6 -21.7Z" fill="#ff4600"></path></g><g transform="translate(713 108)"><path d="M57.3 -19.5C64.9 4.7 55.2 33.7 36.1 46.9C17 60.2 -11.5 57.6 -30.4 43.5C-49.3 29.4 -58.5 3.7 -51.9 -19.3C-45.2 -42.3 -22.6 -62.5 1.1 -62.9C24.9 -63.3 49.7 -43.8 57.3 -19.5Z" fill="#ff4600"></path></g><g transform="translate(409 535)"><path d="M71.8 -23C80.5 3.3 66.2 37.3 42.7 53C19.3 68.7 -13.4 66 -36.6 49.3C-59.9 32.7 -73.8 2.1 -66.1 -22.9C-58.5 -47.8 -29.2 -67.1 1.2 -67.5C31.6 -67.9 63.2 -49.4 71.8 -23Z" fill="#ff4600"></path></g></g></svg>