<svg id="visual" viewBox="0 0 900 600" width="900" height="600" xmlns="http://www.w3.org/2000/svg" xmlns:xlink="http://www.w3.org/1999/xlink" version="1.1"><rect x="0" y="0" width="900" height="600" fill="#000911"></rect><path d="M0 496L16.7 492.7C33.3 489.3 66.7 482.7 100 488C133.3 493.3 166.7 510.7 200 513.8C233.3 517 266.7 506 300 503.7C333.3 501.3 366.7 507.7 400 514.7C433.3 521.7 466.7 529.3 500 527.5C533.3 525.7 566.7 514.3 600 505C633.3 495.7 666.7 488.3 700 487.5C733.3 486.7 766.7 492.3 800 492.8C833.3 493.3 866.7 488.7 883.3 486.3L900 484L900 601L883.3 601C866.7 601 833.3 601 800 601C766.7 601 733.3 601 700 601C666.7 601 633.3 601 600 601C566.7 601 533.3 601 500 601C466.7 601 433.3 601 400 601C366.7 601 333.3 601 300 601C266.7 601 233.3 601 200 601C166.7 601 133.3 601 100 601C66.7 601 33.3 601 16.7 601L0 601Z" fill="#ff4600" stroke-linecap="round" stroke-linejoin="miter"></path></svg>