<svg id="visual" viewBox="0 0 900 600" width="900" height="600" xmlns="http://www.w3.org/2000/svg" xmlns:xlink="http://www.w3.org/1999/xlink" version="1.1"><rect x="0" y="0" width="900" height="600" fill="#000911"></rect><path d="M0 104L11.5 95.2C23 86.3 46 68.7 69 71.5C92 74.3 115 97.7 138.2 110.7C161.3 123.7 184.7 126.3 207.8 113.5C231 100.7 254 72.3 277 70C300 67.7 323 91.3 346 98.7C369 106 392 97 415.2 96.3C438.3 95.7 461.7 103.3 484.8 98C508 92.7 531 74.3 554 79.2C577 84 600 112 623 126.5C646 141 669 142 692.2 140.7C715.3 139.3 738.7 135.7 761.8 120.2C785 104.7 808 77.3 831 62.8C854 48.3 877 46.7 888.5 45.8L900 45L900 0L888.5 0C877 0 854 0 831 0C808 0 785 0 761.8 0C738.7 0 715.3 0 692.2 0C669 0 646 0 623 0C600 0 577 0 554 0C531 0 508 0 484.8 0C461.7 0 438.3 0 415.2 0C392 0 369 0 346 0C323 0 300 0 277 0C254 0 231 0 207.8 0C184.7 0 161.3 0 138.2 0C115 0 92 0 69 0C46 0 23 0 11.5 0L0 0Z" fill="#ff4600" stroke-linecap="round" stroke-linejoin="miter"></path></svg>